<svg width="47" height="39" viewBox="0 0 47 39" fill="none" xmlns="http://www.w3.org/2000/svg">
<path d="M24.9706 2.34315C21.8464 -0.78105 16.781 -0.78105 13.6569 2.34315L2.34315 13.6569C-0.78105 16.7811 -0.78105 21.8464 2.34315 24.9706L13.6569 36.2843C16.781 39.4085 21.8464 39.4085 24.9706 36.2843L30.3688 30.886C25.8749 29.1523 22.6868 24.7916 22.6868 19.6863C22.6868 14.3776 26.134 9.87396 30.9122 8.29196C30.8187 8.19376 30.7238 8.09646 30.6274 7.99996L24.9706 2.34315Z" fill="#875BF7"/>
<path d="M30.3691 30.8894C31.7089 31.4062 33.1646 31.6895 34.6865 31.6895C41.3139 31.6895 46.6865 26.3169 46.6865 19.6895C46.6865 13.0621 41.3139 7.68945 34.6865 7.68945C33.368 7.68945 32.0992 7.90205 30.9125 8.29495C36.8748 14.5631 36.78 24.4786 30.6279 30.6306L30.3691 30.8894Z" fill="#EE46BC"/>
</svg>
