<svg width="39" height="45" viewBox="0 0 39 45" fill="none" xmlns="http://www.w3.org/2000/svg">
<path d="M27.3735 1.5L37.5 7.12501L37.4993 18.3745M27.3735 1.5L27.3755 12.7497M27.3735 1.5L1.5 14.9996L1.50196 26.2493M37.4993 18.3745L27.3755 12.7497M37.4993 18.3745L11.6258 31.8741L1.50196 26.2493M27.3755 12.7497L1.50196 26.2493" stroke="#1570EF" stroke-width="3" stroke-linejoin="round"/>
<path opacity="0.5" d="M11.6265 43.1251L1.5 37.5001L1.5007 26.2506M11.6265 43.1251L11.6245 31.8755M11.6265 43.1251L37.5 29.6255L37.498 18.3758M1.5007 26.2506L11.6245 31.8755M1.5007 26.2506L27.3742 12.751L37.498 18.3758M11.6245 31.8755L37.498 18.3758" stroke="#1570EF" stroke-width="3" stroke-linejoin="round"/>
</svg>
