<svg width="113" height="38" viewBox="0 0 113 38" fill="none" xmlns="http://www.w3.org/2000/svg">
<rect x="0.5" y="0.5" width="111.675" height="37" rx="18.5" fill="white"/>
<rect x="0.5" y="0.5" width="111.675" height="37" rx="18.5" stroke="#F3F4F6"/>
<g clip-path="url(#clip0_12071_92)">
<g clip-path="url(#clip1_12071_92)">
<g clip-path="url(#clip2_12071_92)">
<path fill-rule="evenodd" clip-rule="evenodd" d="M21.6153 14.8426C20.793 14.2932 19.8263 14 18.8374 14V9C20.8152 9 22.7486 9.58649 24.3931 10.6853C26.0376 11.7841 27.3193 13.3459 28.0762 15.1732C28.8331 17.0004 29.0311 19.0111 28.6453 20.9509C28.2594 22.8907 27.307 24.6726 25.9085 26.0711C24.51 27.4696 22.7281 28.422 20.7883 28.8079C18.8485 29.1937 16.8378 28.9957 15.0106 28.2388C13.1833 27.4819 11.6215 26.2002 10.5227 24.5557C9.42389 22.9112 8.8374 20.9778 8.8374 19H13.8374C13.8374 19.9889 14.1307 20.9556 14.6801 21.7779C15.2295 22.6001 16.0104 23.241 16.924 23.6194C17.8376 23.9979 18.843 24.0969 19.8129 23.9039C20.7828 23.711 21.6737 23.2348 22.373 22.5356C23.0722 21.8363 23.5484 20.9454 23.7413 19.9755C23.9343 19.0056 23.8353 18.0002 23.4568 17.0866C23.0784 16.173 22.4375 15.392 21.6153 14.8426Z" fill="url(#paint0_linear_12071_92)"/>
<path fill-rule="evenodd" clip-rule="evenodd" d="M13.8374 9C13.8374 9.65661 13.7081 10.3068 13.4568 10.9134C13.2055 11.52 12.8372 12.0712 12.3729 12.5355C11.9086 12.9998 11.3575 13.3681 10.7508 13.6194C10.1442 13.8707 9.49401 14 8.8374 14L8.8374 19C10.1506 19 11.451 18.7414 12.6642 18.2388C13.8775 17.7363 14.9799 16.9997 15.9085 16.0711C16.8371 15.1425 17.5737 14.0401 18.0762 12.8268C18.5788 11.6136 18.8374 10.3132 18.8374 9L13.8374 9Z" fill="url(#paint1_linear_12071_92)"/>
</g>
</g>
</g>
<path d="M41.0858 15.524V18.32H44.1338V19.22H41.0858V22.1H44.4938V23H39.9938V14.624H44.4938V15.524H41.0858ZM49.3502 16.304C50.1502 16.304 50.7982 16.548 51.2942 17.036C51.7902 17.516 52.0382 18.212 52.0382 19.124V23H50.9582V19.28C50.9582 18.624 50.7942 18.124 50.4662 17.78C50.1382 17.428 49.6902 17.252 49.1222 17.252C48.5462 17.252 48.0862 17.432 47.7422 17.792C47.4062 18.152 47.2382 18.676 47.2382 19.364V23H46.1462V16.424H47.2382V17.36C47.4542 17.024 47.7462 16.764 48.1142 16.58C48.4902 16.396 48.9022 16.304 49.3502 16.304ZM56.1499 23.108C55.6459 23.108 55.1939 23.024 54.7939 22.856C54.3939 22.68 54.0779 22.44 53.8459 22.136C53.6139 21.824 53.4859 21.468 53.4619 21.068H54.5899C54.6219 21.396 54.7739 21.664 55.0459 21.872C55.3259 22.08 55.6899 22.184 56.1379 22.184C56.5539 22.184 56.8819 22.092 57.1219 21.908C57.3619 21.724 57.4819 21.492 57.4819 21.212C57.4819 20.924 57.3539 20.712 57.0979 20.576C56.8419 20.432 56.4459 20.292 55.9099 20.156C55.4219 20.028 55.0219 19.9 54.7099 19.772C54.4059 19.636 54.1419 19.44 53.9179 19.184C53.7019 18.92 53.5939 18.576 53.5939 18.152C53.5939 17.816 53.6939 17.508 53.8939 17.228C54.0939 16.948 54.3779 16.728 54.7459 16.568C55.1139 16.4 55.5339 16.316 56.0059 16.316C56.7339 16.316 57.3219 16.5 57.7699 16.868C58.2179 17.236 58.4579 17.74 58.4899 18.38H57.3979C57.3739 18.036 57.2339 17.76 56.9779 17.552C56.7299 17.344 56.3939 17.24 55.9699 17.24C55.5779 17.24 55.2659 17.324 55.0339 17.492C54.8019 17.66 54.6859 17.88 54.6859 18.152C54.6859 18.368 54.7539 18.548 54.8899 18.692C55.0339 18.828 55.2099 18.94 55.4179 19.028C55.6339 19.108 55.9299 19.2 56.3059 19.304C56.7779 19.432 57.1619 19.56 57.4579 19.688C57.7539 19.808 58.0059 19.992 58.2139 20.24C58.4299 20.488 58.5419 20.812 58.5499 21.212C58.5499 21.572 58.4499 21.896 58.2499 22.184C58.0499 22.472 57.7659 22.7 57.3979 22.868C57.0379 23.028 56.6219 23.108 56.1499 23.108ZM61.4235 17.324V21.2C61.4235 21.52 61.4915 21.748 61.6275 21.884C61.7635 22.012 61.9995 22.076 62.3355 22.076H63.1395V23H62.1555C61.5475 23 61.0915 22.86 60.7875 22.58C60.4835 22.3 60.3315 21.84 60.3315 21.2V17.324H59.4795V16.424H60.3315V14.768H61.4235V16.424H63.1395V17.324H61.4235ZM67.3306 23.108C66.7146 23.108 66.1546 22.968 65.6506 22.688C65.1546 22.408 64.7626 22.012 64.4746 21.5C64.1946 20.98 64.0546 20.38 64.0546 19.7C64.0546 19.028 64.1986 18.436 64.4866 17.924C64.7826 17.404 65.1826 17.008 65.6866 16.736C66.1906 16.456 66.7546 16.316 67.3786 16.316C68.0026 16.316 68.5666 16.456 69.0706 16.736C69.5746 17.008 69.9706 17.4 70.2586 17.912C70.5546 18.424 70.7026 19.02 70.7026 19.7C70.7026 20.38 70.5506 20.98 70.2466 21.5C69.9506 22.012 69.5466 22.408 69.0346 22.688C68.5226 22.968 67.9546 23.108 67.3306 23.108ZM67.3306 22.148C67.7226 22.148 68.0906 22.056 68.4346 21.872C68.7786 21.688 69.0546 21.412 69.2626 21.044C69.4786 20.676 69.5866 20.228 69.5866 19.7C69.5866 19.172 69.4826 18.724 69.2746 18.356C69.0666 17.988 68.7946 17.716 68.4586 17.54C68.1226 17.356 67.7586 17.264 67.3666 17.264C66.9666 17.264 66.5986 17.356 66.2626 17.54C65.9346 17.716 65.6706 17.988 65.4706 18.356C65.2706 18.724 65.1706 19.172 65.1706 19.7C65.1706 20.236 65.2666 20.688 65.4586 21.056C65.6586 21.424 65.9226 21.7 66.2506 21.884C66.5786 22.06 66.9386 22.148 67.3306 22.148ZM74.8504 16.316C75.4184 16.316 75.9144 16.44 76.3384 16.688C76.7704 16.936 77.0904 17.248 77.2984 17.624V16.424H78.4024V23.144C78.4024 23.744 78.2744 24.276 78.0184 24.74C77.7624 25.212 77.3944 25.58 76.9144 25.844C76.4424 26.108 75.8904 26.24 75.2584 26.24C74.3944 26.24 73.6744 26.036 73.0984 25.628C72.5224 25.22 72.1824 24.664 72.0784 23.96H73.1584C73.2784 24.36 73.5264 24.68 73.9024 24.92C74.2784 25.168 74.7304 25.292 75.2584 25.292C75.8584 25.292 76.3464 25.104 76.7224 24.728C77.1064 24.352 77.2984 23.824 77.2984 23.144V21.764C77.0824 22.148 76.7624 22.468 76.3384 22.724C75.9144 22.98 75.4184 23.108 74.8504 23.108C74.2664 23.108 73.7344 22.964 73.2544 22.676C72.7824 22.388 72.4104 21.984 72.1384 21.464C71.8664 20.944 71.7304 20.352 71.7304 19.688C71.7304 19.016 71.8664 18.428 72.1384 17.924C72.4104 17.412 72.7824 17.016 73.2544 16.736C73.7344 16.456 74.2664 16.316 74.8504 16.316ZM77.2984 19.7C77.2984 19.204 77.1984 18.772 76.9984 18.404C76.7984 18.036 76.5264 17.756 76.1824 17.564C75.8464 17.364 75.4744 17.264 75.0664 17.264C74.6584 17.264 74.2864 17.36 73.9504 17.552C73.6144 17.744 73.3464 18.024 73.1464 18.392C72.9464 18.76 72.8464 19.192 72.8464 19.688C72.8464 20.192 72.9464 20.632 73.1464 21.008C73.3464 21.376 73.6144 21.66 73.9504 21.86C74.2864 22.052 74.6584 22.148 75.0664 22.148C75.4744 22.148 75.8464 22.052 76.1824 21.86C76.5264 21.66 76.7984 21.376 76.9984 21.008C77.1984 20.632 77.2984 20.196 77.2984 19.7ZM81.3397 17.492C81.5317 17.116 81.8037 16.824 82.1557 16.616C82.5157 16.408 82.9517 16.304 83.4637 16.304V17.432H83.1757C81.9517 17.432 81.3397 18.096 81.3397 19.424V23H80.2477V16.424H81.3397V17.492ZM90.7243 19.46C90.7243 19.668 90.7123 19.888 90.6883 20.12H85.4323C85.4723 20.768 85.6923 21.276 86.0923 21.644C86.5003 22.004 86.9923 22.184 87.5683 22.184C88.0403 22.184 88.4323 22.076 88.7443 21.86C89.0643 21.636 89.2883 21.34 89.4163 20.972H90.5923C90.4163 21.604 90.0643 22.12 89.5363 22.52C89.0083 22.912 88.3523 23.108 87.5683 23.108C86.9443 23.108 86.3843 22.968 85.8883 22.688C85.4003 22.408 85.0163 22.012 84.7363 21.5C84.4563 20.98 84.3163 20.38 84.3163 19.7C84.3163 19.02 84.4523 18.424 84.7243 17.912C84.9963 17.4 85.3763 17.008 85.8643 16.736C86.3603 16.456 86.9283 16.316 87.5683 16.316C88.1923 16.316 88.7443 16.452 89.2243 16.724C89.7043 16.996 90.0723 17.372 90.3283 17.852C90.5923 18.324 90.7243 18.86 90.7243 19.46ZM89.5963 19.232C89.5963 18.816 89.5043 18.46 89.3203 18.164C89.1363 17.86 88.8843 17.632 88.5643 17.48C88.2523 17.32 87.9043 17.24 87.5203 17.24C86.9683 17.24 86.4963 17.416 86.1043 17.768C85.7203 18.12 85.5003 18.608 85.4443 19.232H89.5963ZM100.074 16.304C100.586 16.304 101.042 16.412 101.442 16.628C101.842 16.836 102.158 17.152 102.39 17.576C102.622 18 102.738 18.516 102.738 19.124V23H101.658V19.28C101.658 18.624 101.494 18.124 101.166 17.78C100.846 17.428 100.41 17.252 99.8577 17.252C99.2897 17.252 98.8377 17.436 98.5017 17.804C98.1657 18.164 97.9977 18.688 97.9977 19.376V23H96.9177V19.28C96.9177 18.624 96.7537 18.124 96.4257 17.78C96.1057 17.428 95.6697 17.252 95.1177 17.252C94.5497 17.252 94.0977 17.436 93.7617 17.804C93.4257 18.164 93.2577 18.688 93.2577 19.376V23H92.1657V16.424H93.2577V17.372C93.4737 17.028 93.7617 16.764 94.1217 16.58C94.4897 16.396 94.8937 16.304 95.3337 16.304C95.8857 16.304 96.3737 16.428 96.7977 16.676C97.2217 16.924 97.5377 17.288 97.7457 17.768C97.9297 17.304 98.2337 16.944 98.6577 16.688C99.0817 16.432 99.5537 16.304 100.074 16.304Z" fill="#1F1F1F"/>
<defs>
<linearGradient id="paint0_linear_12071_92" x1="8.8374" y1="9" x2="28.8374" y2="29" gradientUnits="userSpaceOnUse">
<stop stop-color="#CC39A5"/>
<stop offset="0.5" stop-color="#F9514D"/>
<stop offset="1" stop-color="#FFC451"/>
</linearGradient>
<linearGradient id="paint1_linear_12071_92" x1="8.8374" y1="9" x2="28.8374" y2="29" gradientUnits="userSpaceOnUse">
<stop stop-color="#CC39A5"/>
<stop offset="0.5" stop-color="#F9514D"/>
<stop offset="1" stop-color="#FFC451"/>
</linearGradient>
<clipPath id="clip0_12071_92">
<rect width="20" height="20" fill="white" transform="translate(8.8374 9)"/>
</clipPath>
<clipPath id="clip1_12071_92">
<rect width="20" height="20" fill="white" transform="translate(8.8374 9)"/>
</clipPath>
<clipPath id="clip2_12071_92">
<rect width="20" height="20" fill="white" transform="translate(8.8374 9)"/>
</clipPath>
</defs>
</svg>
