<svg width="111" height="38" viewBox="0 0 111 38" fill="none" xmlns="http://www.w3.org/2000/svg">
<rect x="0.5" y="0.5" width="109.5" height="37" rx="18.5" fill="white"/>
<rect x="0.5" y="0.5" width="109.5" height="37" rx="18.5" stroke="#F3F4F6"/>
<g clip-path="url(#clip0_12071_127)">
<g clip-path="url(#clip1_12071_127)">
<g clip-path="url(#clip2_12071_127)">
<path d="M22.25 14C22.25 16.7614 20.0114 19 17.25 19H12.25V14C12.25 11.2386 14.4886 9 17.25 9C20.0114 9 22.25 11.2386 22.25 14Z" fill="#1976D2"/>
<path d="M22.25 24C22.25 21.2386 24.4886 19 27.25 19H32.25V24C32.25 26.7614 30.0114 29 27.25 29C24.4886 29 22.25 26.7614 22.25 24Z" fill="#1976D2"/>
<path d="M12.25 24C12.25 26.7614 14.4886 29 17.25 29H22.25V24C22.25 21.2386 20.0114 19 17.25 19C14.4886 19 12.25 21.2386 12.25 24Z" fill="#1976D2"/>
<path d="M32.25 14C32.25 11.2386 30.0114 9 27.25 9H22.25V14C22.25 16.7614 24.4886 19 27.25 19C30.0114 19 32.25 16.7614 32.25 14Z" fill="#1976D2"/>
</g>
</g>
</g>
<path d="M48.6637 14.636V15.524H45.0277V18.344H47.9797V19.232H45.0277V23H43.9357V14.636H48.6637ZM52.8506 23.108C52.2346 23.108 51.6746 22.968 51.1706 22.688C50.6746 22.408 50.2826 22.012 49.9946 21.5C49.7146 20.98 49.5746 20.38 49.5746 19.7C49.5746 19.028 49.7186 18.436 50.0066 17.924C50.3026 17.404 50.7026 17.008 51.2066 16.736C51.7106 16.456 52.2746 16.316 52.8986 16.316C53.5226 16.316 54.0866 16.456 54.5906 16.736C55.0946 17.008 55.4906 17.4 55.7786 17.912C56.0746 18.424 56.2226 19.02 56.2226 19.7C56.2226 20.38 56.0706 20.98 55.7666 21.5C55.4706 22.012 55.0666 22.408 54.5546 22.688C54.0426 22.968 53.4746 23.108 52.8506 23.108ZM52.8506 22.148C53.2426 22.148 53.6106 22.056 53.9546 21.872C54.2986 21.688 54.5746 21.412 54.7826 21.044C54.9986 20.676 55.1066 20.228 55.1066 19.7C55.1066 19.172 55.0026 18.724 54.7946 18.356C54.5866 17.988 54.3146 17.716 53.9786 17.54C53.6426 17.356 53.2786 17.264 52.8866 17.264C52.4866 17.264 52.1186 17.356 51.7826 17.54C51.4546 17.716 51.1906 17.988 50.9906 18.356C50.7906 18.724 50.6906 19.172 50.6906 19.7C50.6906 20.236 50.7866 20.688 50.9786 21.056C51.1786 21.424 51.4426 21.7 51.7706 21.884C52.0986 22.06 52.4586 22.148 52.8506 22.148ZM58.7504 17.492C58.9424 17.116 59.2144 16.824 59.5664 16.616C59.9264 16.408 60.3624 16.304 60.8744 16.304V17.432H60.5864C59.3624 17.432 58.7504 18.096 58.7504 19.424V23H57.6584V16.424H58.7504V17.492ZM61.7269 19.688C61.7269 19.016 61.8629 18.428 62.1349 17.924C62.4069 17.412 62.7789 17.016 63.2509 16.736C63.7309 16.456 64.2629 16.316 64.8469 16.316C65.4229 16.316 65.9229 16.44 66.3469 16.688C66.7709 16.936 67.0869 17.248 67.2949 17.624V16.424H68.3989V23H67.2949V21.776C67.0789 22.16 66.7549 22.48 66.3229 22.736C65.8989 22.984 65.4029 23.108 64.8349 23.108C64.2509 23.108 63.7229 22.964 63.2509 22.676C62.7789 22.388 62.4069 21.984 62.1349 21.464C61.8629 20.944 61.7269 20.352 61.7269 19.688ZM67.2949 19.7C67.2949 19.204 67.1949 18.772 66.9949 18.404C66.7949 18.036 66.5229 17.756 66.1789 17.564C65.8429 17.364 65.4709 17.264 65.0629 17.264C64.6549 17.264 64.2829 17.36 63.9469 17.552C63.6109 17.744 63.3429 18.024 63.1429 18.392C62.9429 18.76 62.8429 19.192 62.8429 19.688C62.8429 20.192 62.9429 20.632 63.1429 21.008C63.3429 21.376 63.6109 21.66 63.9469 21.86C64.2829 22.052 64.6549 22.148 65.0629 22.148C65.4709 22.148 65.8429 22.052 66.1789 21.86C66.5229 21.66 66.7949 21.376 66.9949 21.008C67.1949 20.632 67.2949 20.196 67.2949 19.7ZM71.3363 17.648C71.5603 17.256 71.8883 16.936 72.3203 16.688C72.7523 16.44 73.2443 16.316 73.7963 16.316C74.3883 16.316 74.9203 16.456 75.3923 16.736C75.8643 17.016 76.2363 17.412 76.5083 17.924C76.7803 18.428 76.9163 19.016 76.9163 19.688C76.9163 20.352 76.7803 20.944 76.5083 21.464C76.2363 21.984 75.8603 22.388 75.3803 22.676C74.9083 22.964 74.3803 23.108 73.7963 23.108C73.2283 23.108 72.7283 22.984 72.2963 22.736C71.8723 22.488 71.5523 22.172 71.3363 21.788V23H70.2443V14.12H71.3363V17.648ZM75.8003 19.688C75.8003 19.192 75.7003 18.76 75.5003 18.392C75.3003 18.024 75.0283 17.744 74.6843 17.552C74.3483 17.36 73.9763 17.264 73.5683 17.264C73.1683 17.264 72.7963 17.364 72.4523 17.564C72.1163 17.756 71.8443 18.04 71.6363 18.416C71.4363 18.784 71.3363 19.212 71.3363 19.7C71.3363 20.196 71.4363 20.632 71.6363 21.008C71.8443 21.376 72.1163 21.66 72.4523 21.86C72.7963 22.052 73.1683 22.148 73.5683 22.148C73.9763 22.148 74.3483 22.052 74.6843 21.86C75.0283 21.66 75.3003 21.376 75.5003 21.008C75.7003 20.632 75.8003 20.192 75.8003 19.688ZM84.3537 19.46C84.3537 19.668 84.3417 19.888 84.3177 20.12H79.0617C79.1017 20.768 79.3217 21.276 79.7217 21.644C80.1297 22.004 80.6217 22.184 81.1977 22.184C81.6697 22.184 82.0617 22.076 82.3737 21.86C82.6937 21.636 82.9177 21.34 83.0457 20.972H84.2217C84.0457 21.604 83.6937 22.12 83.1657 22.52C82.6377 22.912 81.9817 23.108 81.1977 23.108C80.5737 23.108 80.0137 22.968 79.5177 22.688C79.0297 22.408 78.6457 22.012 78.3657 21.5C78.0857 20.98 77.9457 20.38 77.9457 19.7C77.9457 19.02 78.0817 18.424 78.3537 17.912C78.6257 17.4 79.0057 17.008 79.4937 16.736C79.9897 16.456 80.5577 16.316 81.1977 16.316C81.8217 16.316 82.3737 16.452 82.8537 16.724C83.3337 16.996 83.7017 17.372 83.9577 17.852C84.2217 18.324 84.3537 18.86 84.3537 19.46ZM83.2257 19.232C83.2257 18.816 83.1337 18.46 82.9497 18.164C82.7657 17.86 82.5137 17.632 82.1937 17.48C81.8817 17.32 81.5337 17.24 81.1497 17.24C80.5977 17.24 80.1257 17.416 79.7337 17.768C79.3497 18.12 79.1297 18.608 79.0737 19.232H83.2257ZM91.7951 19.46C91.7951 19.668 91.7831 19.888 91.7591 20.12H86.5031C86.5431 20.768 86.7631 21.276 87.1631 21.644C87.5711 22.004 88.0631 22.184 88.6391 22.184C89.1111 22.184 89.5031 22.076 89.8151 21.86C90.1351 21.636 90.3591 21.34 90.4871 20.972H91.6631C91.4871 21.604 91.1351 22.12 90.6071 22.52C90.0791 22.912 89.4231 23.108 88.6391 23.108C88.0151 23.108 87.4551 22.968 86.9591 22.688C86.4711 22.408 86.0871 22.012 85.8071 21.5C85.5271 20.98 85.3871 20.38 85.3871 19.7C85.3871 19.02 85.5231 18.424 85.7951 17.912C86.0671 17.4 86.4471 17.008 86.9351 16.736C87.4311 16.456 87.9991 16.316 88.6391 16.316C89.2631 16.316 89.8151 16.452 90.2951 16.724C90.7751 16.996 91.1431 17.372 91.3991 17.852C91.6631 18.324 91.7951 18.86 91.7951 19.46ZM90.6671 19.232C90.6671 18.816 90.5751 18.46 90.3911 18.164C90.2071 17.86 89.9551 17.632 89.6351 17.48C89.3231 17.32 88.9751 17.24 88.5911 17.24C88.0391 17.24 87.5671 17.416 87.1751 17.768C86.7911 18.12 86.5711 18.608 86.5151 19.232H90.6671ZM96.9085 23L94.3285 20.096V23H93.2365V14.12H94.3285V19.34L96.8605 16.424H98.3845L95.2885 19.7L98.3965 23H96.9085Z" fill="#1F1F1F"/>
<defs>
<clipPath id="clip0_12071_127">
<rect width="21" height="20" fill="white" transform="translate(11.75 9)"/>
</clipPath>
<clipPath id="clip1_12071_127">
<rect width="21" height="20" fill="white" transform="translate(11.75 9)"/>
</clipPath>
<clipPath id="clip2_12071_127">
<rect width="21" height="20" fill="white" transform="translate(11.75 9)"/>
</clipPath>
</defs>
</svg>
