<svg width="45" height="45" viewBox="0 0 45 45" fill="none" xmlns="http://www.w3.org/2000/svg">
<path d="M22.08 0C9.89692 -9.6e-08 0 9.89692 0 22.08C0 34.2631 9.89692 44.16 22.08 44.16C34.2631 44.16 44.16 34.2631 44.16 22.08C44.16 9.89692 34.2631 0 22.08 0ZM22.08 1.92C33.2254 1.92 42.24 10.9346 42.24 22.08C42.24 33.2254 33.2254 42.24 22.08 42.24C10.9346 42.24 1.92 33.2254 1.92 22.08C1.92 10.9346 10.9346 1.92 22.08 1.92ZM21.12 3.9675C18.6317 4.57998 16.4297 7.52748 15.0281 11.715C16.9606 12.1105 19.0128 12.3428 21.12 12.3975V3.9675ZM23.04 3.9675V12.3975C25.1683 12.3437 27.2213 12.1178 29.1375 11.73C27.7359 7.5348 25.5302 4.57998 23.04 3.9675ZM16.7213 4.64625C13.6435 5.59377 10.9244 7.34589 8.77687 9.64125C10.0834 10.2912 11.5504 10.834 13.1325 11.265C14.0282 8.53188 15.2563 6.26481 16.7213 4.64625ZM27.4387 4.64625C28.9066 6.26769 30.1374 8.54203 31.0331 11.2819C32.6296 10.847 34.0959 10.2961 35.3794 9.63562C33.2328 7.34219 30.5136 5.59281 27.4387 4.64625ZM36.6356 11.1356C35.1515 11.9411 33.4415 12.6077 31.5637 13.1213C32.1791 15.5395 32.5475 18.24 32.6156 21.12H40.2712C40.0754 17.3837 38.7553 13.9475 36.6356 11.1356ZM7.515 11.1469C5.40012 13.9568 4.08459 17.3885 3.88875 21.12H11.5444C11.6125 18.2342 11.9818 15.5283 12.6 13.1062C10.7395 12.5974 9.02508 11.9389 7.515 11.1469ZM14.4787 13.5581C13.8883 15.8477 13.5345 18.4186 13.4644 21.12H21.12V14.3175C18.8275 14.2599 16.5869 14.0007 14.4787 13.5581ZM29.6831 13.5731C27.5922 14.008 25.3536 14.2618 23.04 14.3175V21.12H30.6956C30.6255 18.4243 30.2716 15.8589 29.6831 13.5731ZM3.88875 23.04C4.08459 26.7763 5.40469 30.2125 7.52437 33.0244C9.00854 32.2189 10.7185 31.5523 12.5962 31.0387C11.9809 28.6205 11.6125 25.92 11.5444 23.04H3.88875ZM13.4644 23.04C13.5345 25.7357 13.8884 28.3011 14.4769 30.5869C16.5678 30.152 18.8064 29.8982 21.12 29.8425V23.04H13.4644ZM23.04 23.04V29.8425C25.3325 29.9001 27.5712 30.1593 29.6794 30.6019C30.2698 28.3123 30.6255 25.7414 30.6956 23.04H23.04ZM32.6156 23.04C32.5475 25.9258 32.1782 28.6317 31.56 31.0537C33.4205 31.5625 35.1349 32.2211 36.645 33.0131C38.7599 30.2032 40.0754 26.7715 40.2712 23.04H32.6156ZM21.12 31.7625C18.9917 31.8163 16.9387 32.0422 15.0225 32.43C16.4241 36.6252 18.6298 39.58 21.12 40.1925V31.7625ZM23.04 31.7625V40.1925C25.5283 39.58 27.7303 36.6325 29.1319 32.445C27.1994 32.0495 25.1472 31.8172 23.04 31.7625ZM13.1269 32.8781C11.5304 33.313 10.0641 33.8639 8.78062 34.5244C10.9272 36.8178 13.6464 38.5672 16.7213 39.5137C15.2534 37.8923 14.0226 35.618 13.1269 32.8781ZM31.0275 32.895C30.1318 35.6281 28.9018 37.8952 27.4369 39.5137C30.5146 38.5662 33.2356 36.8141 35.3831 34.5187C34.0766 33.8688 32.6096 33.326 31.0275 32.895Z" fill="#444444"/>
</svg>
