<svg width="242" height="110" viewBox="0 0 242 110" fill="none" xmlns="http://www.w3.org/2000/svg">
<g filter="url(#filter0_d_11584_412)">
<rect x="20" y="18" width="202" height="70" rx="12" fill="white"/>
<path d="M89.6 72.224C88.7147 72.224 87.936 72.048 87.264 71.696C86.6027 71.3333 86.0853 70.8267 85.712 70.176C85.3493 69.5253 85.168 68.768 85.168 67.904V60.8H87.024V67.904C87.024 68.4267 87.1307 68.8853 87.344 69.28C87.568 69.664 87.8773 69.968 88.272 70.192C88.6667 70.4053 89.12 70.512 89.632 70.512C90.1547 70.512 90.6133 70.4053 91.008 70.192C91.4133 69.968 91.7227 69.664 91.936 69.28C92.1493 68.8853 92.256 68.4267 92.256 67.904V60.8H94.112V67.904C94.112 68.768 93.9253 69.5253 93.552 70.176C93.1893 70.8267 92.6667 71.3333 91.984 71.696C91.312 72.048 90.5173 72.224 89.6 72.224ZM95.4413 72L99.7773 65.856L103.313 60.8H105.521L101.281 66.656L97.6813 72H95.4413ZM103.329 72L99.7453 66.656L95.4893 60.8H97.7133L101.249 65.856L105.569 72H103.329ZM110.922 72V60.8H114.442C115.54 60.8 116.511 61.04 117.354 61.52C118.207 61.9893 118.874 62.6453 119.354 63.488C119.844 64.3307 120.09 65.3013 120.09 66.4C120.09 67.488 119.844 68.4533 119.354 69.296C118.874 70.1387 118.207 70.8 117.354 71.28C116.511 71.76 115.54 72 114.442 72H110.922ZM112.778 70.272H114.442C114.964 70.272 115.455 70.176 115.914 69.984C116.372 69.7813 116.772 69.504 117.114 69.152C117.455 68.8 117.722 68.3893 117.914 67.92C118.106 67.4507 118.202 66.944 118.202 66.4C118.202 65.856 118.106 65.3493 117.914 64.88C117.722 64.4107 117.455 64 117.114 63.648C116.772 63.296 116.372 63.024 115.914 62.832C115.455 62.6293 114.964 62.528 114.442 62.528H112.778V70.272ZM125.279 72.192C124.5 72.192 123.807 72.016 123.199 71.664C122.601 71.3013 122.127 70.8053 121.775 70.176C121.433 69.5467 121.263 68.8213 121.263 68C121.263 67.1787 121.439 66.4533 121.791 65.824C122.143 65.1947 122.623 64.704 123.231 64.352C123.849 63.9893 124.553 63.808 125.343 63.808C126.057 63.808 126.703 63.9947 127.279 64.368C127.855 64.7307 128.308 65.2587 128.639 65.952C128.98 66.6453 129.151 67.472 129.151 68.432H122.863L123.103 68.208C123.103 68.6987 123.209 69.1253 123.423 69.488C123.636 69.84 123.919 70.112 124.271 70.304C124.623 70.496 125.012 70.592 125.439 70.592C125.929 70.592 126.335 70.4853 126.655 70.272C126.975 70.048 127.225 69.76 127.407 69.408L128.991 70.08C128.767 70.5067 128.479 70.88 128.127 71.2C127.785 71.52 127.375 71.7653 126.895 71.936C126.425 72.1067 125.887 72.192 125.279 72.192ZM123.215 67.28L122.959 67.056H127.471L127.231 67.28C127.231 66.8427 127.135 66.4853 126.943 66.208C126.751 65.92 126.505 65.7067 126.207 65.568C125.919 65.4187 125.615 65.344 125.295 65.344C124.975 65.344 124.655 65.4187 124.335 65.568C124.015 65.7067 123.748 65.92 123.535 66.208C123.321 66.4853 123.215 66.8427 123.215 67.28ZM133.435 72.192C132.902 72.192 132.411 72.112 131.963 71.952C131.515 71.792 131.131 71.568 130.811 71.28C130.491 70.9813 130.246 70.6347 130.075 70.24L131.627 69.552C131.787 69.8507 132.022 70.1013 132.331 70.304C132.651 70.5067 133.003 70.608 133.387 70.608C133.803 70.608 134.134 70.5387 134.379 70.4C134.635 70.2507 134.763 70.048 134.763 69.792C134.763 69.5467 134.667 69.36 134.475 69.232C134.283 69.0933 134.011 68.9813 133.659 68.896L132.907 68.688C132.15 68.496 131.558 68.192 131.131 67.776C130.705 67.3493 130.491 66.864 130.491 66.32C130.491 65.52 130.747 64.9013 131.259 64.464C131.782 64.0267 132.529 63.808 133.499 63.808C133.99 63.808 134.438 63.8827 134.843 64.032C135.259 64.1707 135.617 64.3733 135.915 64.64C136.214 64.896 136.422 65.2 136.539 65.552L135.051 66.224C134.945 65.9573 134.742 65.7547 134.443 65.616C134.145 65.4667 133.814 65.392 133.451 65.392C133.089 65.392 132.806 65.472 132.603 65.632C132.401 65.7813 132.299 65.9947 132.299 66.272C132.299 66.432 132.39 66.5813 132.571 66.72C132.753 66.848 133.014 66.9547 133.355 67.04L134.299 67.264C134.822 67.392 135.249 67.5947 135.579 67.872C135.91 68.1387 136.155 68.4427 136.315 68.784C136.475 69.1147 136.555 69.4507 136.555 69.792C136.555 70.272 136.417 70.6933 136.139 71.056C135.873 71.4187 135.505 71.7013 135.035 71.904C134.566 72.096 134.033 72.192 133.435 72.192ZM138.088 72V64H139.864V72H138.088ZM138.984 62.48C138.696 62.48 138.446 62.3787 138.232 62.176C138.03 61.9627 137.928 61.712 137.928 61.424C137.928 61.136 138.03 60.8907 138.232 60.688C138.446 60.4853 138.696 60.384 138.984 60.384C139.272 60.384 139.518 60.4853 139.72 60.688C139.934 60.8907 140.04 61.136 140.04 61.424C140.04 61.712 139.934 61.9627 139.72 62.176C139.518 62.3787 139.272 62.48 138.984 62.48ZM145.416 75.408C144.851 75.408 144.339 75.36 143.88 75.264C143.432 75.168 143.054 75.056 142.744 74.928C142.435 74.8 142.195 74.6773 142.024 74.56L142.712 73.12C142.862 73.1947 143.059 73.2853 143.304 73.392C143.56 73.5093 143.859 73.6107 144.2 73.696C144.542 73.7813 144.926 73.824 145.352 73.824C145.811 73.824 146.222 73.728 146.584 73.536C146.947 73.3547 147.23 73.072 147.432 72.688C147.635 72.304 147.736 71.8133 147.736 71.216V64H149.528V71.168C149.528 72.0747 149.358 72.8427 149.016 73.472C148.675 74.112 148.195 74.592 147.576 74.912C146.958 75.2427 146.238 75.408 145.416 75.408ZM145.144 71.84C144.419 71.84 143.784 71.6747 143.24 71.344C142.707 71.0133 142.286 70.5547 141.976 69.968C141.678 69.3707 141.528 68.6827 141.528 67.904C141.528 67.072 141.678 66.352 141.976 65.744C142.286 65.136 142.707 64.6613 143.24 64.32C143.784 63.9787 144.419 63.808 145.144 63.808C145.795 63.808 146.36 63.9787 146.84 64.32C147.331 64.6613 147.71 65.1413 147.976 65.76C148.243 66.368 148.376 67.088 148.376 67.92C148.376 68.7093 148.243 69.3973 147.976 69.984C147.71 70.5707 147.331 71.0293 146.84 71.36C146.36 71.68 145.795 71.84 145.144 71.84ZM145.64 70.32C146.046 70.32 146.398 70.2133 146.696 70C147.006 69.7867 147.246 69.4987 147.416 69.136C147.587 68.7627 147.672 68.336 147.672 67.856C147.672 67.3653 147.587 66.9387 147.416 66.576C147.246 66.2027 147.006 65.9147 146.696 65.712C146.387 65.4987 146.03 65.392 145.624 65.392C145.198 65.392 144.819 65.4987 144.488 65.712C144.168 65.9147 143.912 66.2027 143.72 66.576C143.539 66.9387 143.448 67.3653 143.448 67.856C143.448 68.336 143.539 68.7627 143.72 69.136C143.912 69.4987 144.174 69.7867 144.504 70C144.835 70.2133 145.214 70.32 145.64 70.32ZM151.508 72V64H153.188L153.3 65.472V72H151.508ZM156.932 72V67.904H158.724V72H156.932ZM156.932 67.904C156.932 67.264 156.857 66.7733 156.708 66.432C156.569 66.08 156.366 65.8347 156.1 65.696C155.844 65.5573 155.54 65.488 155.188 65.488C154.59 65.4773 154.126 65.6747 153.796 66.08C153.465 66.4853 153.3 67.0667 153.3 67.824H152.628C152.628 66.9813 152.75 66.2613 152.996 65.664C153.241 65.056 153.593 64.5973 154.052 64.288C154.51 63.968 155.054 63.808 155.684 63.808C156.324 63.808 156.868 63.936 157.316 64.192C157.774 64.448 158.121 64.848 158.356 65.392C158.601 65.9253 158.724 66.624 158.724 67.488V67.904H156.932ZM164.107 72.192C163.328 72.192 162.635 72.016 162.027 71.664C161.43 71.3013 160.955 70.8053 160.603 70.176C160.262 69.5467 160.091 68.8213 160.091 68C160.091 67.1787 160.267 66.4533 160.619 65.824C160.971 65.1947 161.451 64.704 162.059 64.352C162.678 63.9893 163.382 63.808 164.171 63.808C164.886 63.808 165.531 63.9947 166.107 64.368C166.683 64.7307 167.136 65.2587 167.467 65.952C167.808 66.6453 167.979 67.472 167.979 68.432H161.691L161.931 68.208C161.931 68.6987 162.038 69.1253 162.251 69.488C162.464 69.84 162.747 70.112 163.099 70.304C163.451 70.496 163.84 70.592 164.267 70.592C164.758 70.592 165.163 70.4853 165.483 70.272C165.803 70.048 166.054 69.76 166.235 69.408L167.819 70.08C167.595 70.5067 167.307 70.88 166.955 71.2C166.614 71.52 166.203 71.7653 165.723 71.936C165.254 72.1067 164.715 72.192 164.107 72.192ZM162.043 67.28L161.787 67.056H166.299L166.059 67.28C166.059 66.8427 165.963 66.4853 165.771 66.208C165.579 65.92 165.334 65.7067 165.035 65.568C164.747 65.4187 164.443 65.344 164.123 65.344C163.803 65.344 163.483 65.4187 163.163 65.568C162.843 65.7067 162.576 65.92 162.363 66.208C162.15 66.4853 162.043 66.8427 162.043 67.28ZM170.535 67.744C170.535 66.88 170.701 66.1707 171.031 65.616C171.362 65.0613 171.789 64.6507 172.311 64.384C172.845 64.1067 173.399 63.968 173.975 63.968V65.68C173.485 65.68 173.021 65.7493 172.583 65.888C172.157 66.016 171.81 66.2293 171.543 66.528C171.277 66.8267 171.143 67.2213 171.143 67.712L170.535 67.744ZM169.351 72V64H171.143V72H169.351Z" fill="#1F1F1F"/>
<g clip-path="url(#clip0_11584_412)">
<mask id="mask0_11584_412" style="mask-type:luminance" maskUnits="userSpaceOnUse" x="32" y="32" width="42" height="42">
<path d="M63.5 32H42.5C36.701 32 32 36.701 32 42.5V63.5C32 69.299 36.701 74 42.5 74H63.5C69.299 74 74 69.299 74 63.5V42.5C74 36.701 69.299 32 63.5 32Z" fill="white"/>
</mask>
<g mask="url(#mask0_11584_412)">
<path d="M63.5 32H42.5C36.701 32 32 36.701 32 42.5V63.5C32 69.299 36.701 74 42.5 74H63.5C69.299 74 74 69.299 74 63.5V42.5C74 36.701 69.299 32 63.5 32Z" fill="#444CE7"/>
<path d="M32 32H74V74H32V32Z" fill="url(#paint0_linear_11584_412)"/>
<path d="M60.7547 61.4028C60.4262 62.0832 59.7373 62.5156 58.9817 62.5156H48.2799C46.8234 62.5156 45.8712 60.9891 46.5117 59.6811L53.9026 44.5873C54.2332 43.9123 54.9192 43.4844 55.6707 43.4844H66.2684C67.7199 43.4844 68.6724 45.0018 68.0413 46.3091L60.7547 61.4028Z" fill="url(#paint1_linear_11584_412)"/>
<path opacity="0.5" d="M41.7585 54.798C42.4484 56.3091 44.5841 56.3393 45.3166 54.8485L49.5059 46.3212C50.1486 45.0131 49.1964 43.4844 47.7388 43.4844H39.6566C38.2233 43.4844 37.2704 44.9669 37.8656 46.2707L41.7585 54.798Z" fill="url(#paint2_linear_11584_412)"/>
</g>
<path d="M63.5 32.875H42.5C37.1843 32.875 32.875 37.1843 32.875 42.5V63.5C32.875 68.8157 37.1843 73.125 42.5 73.125H63.5C68.8157 73.125 73.125 68.8157 73.125 63.5V42.5C73.125 37.1843 68.8157 32.875 63.5 32.875Z" stroke="url(#paint3_linear_11584_412)" stroke-width="2"/>
</g>
<path d="M95.7471 48.16C94.5418 48.16 93.5018 47.92 92.6271 47.44C91.7525 46.9493 91.0751 46.2667 90.5951 45.392C90.1258 44.5173 89.8911 43.488 89.8911 42.304C89.8911 41.1307 90.1258 40.096 90.5951 39.2C91.0751 38.2933 91.7365 37.5893 92.5791 37.088C93.4218 36.576 94.3925 36.32 95.4911 36.32C96.3658 36.32 97.1551 36.4853 97.8591 36.816C98.5738 37.136 99.1551 37.584 99.6031 38.16C100.062 38.736 100.334 39.4027 100.419 40.16H98.7231C98.6165 39.424 98.2751 38.8427 97.6991 38.416C97.1231 37.9787 96.4031 37.76 95.5391 37.76C94.7498 37.76 94.0618 37.9467 93.4751 38.32C92.8885 38.6933 92.4298 39.216 92.0991 39.888C91.7791 40.56 91.6191 41.3547 91.6191 42.272C91.6191 43.2 91.7845 44 92.1151 44.672C92.4458 45.3333 92.9258 45.8453 93.5551 46.208C94.1951 46.56 94.9631 46.736 95.8591 46.736C96.4991 46.736 97.0645 46.6453 97.5551 46.464C98.0458 46.2827 98.4725 46.016 98.8351 45.664L100.483 46.288C99.8858 46.9067 99.1978 47.376 98.4191 47.696C97.6405 48.0053 96.7498 48.16 95.7471 48.16ZM98.7871 46.288V42.752L99.2831 43.248H95.8431V41.84H100.483V46.288H98.7871ZM102.59 48V39.84H104.174V41.872H104.254V48H102.59ZM104.254 43.744L104.046 41.808C104.238 41.1147 104.569 40.5867 105.038 40.224C105.507 39.8613 106.067 39.68 106.718 39.68C106.963 39.68 107.134 39.7013 107.23 39.744V41.312C107.177 41.2907 107.102 41.28 107.006 41.28C106.91 41.2693 106.793 41.264 106.654 41.264C105.854 41.264 105.251 41.472 104.846 41.888C104.451 42.304 104.254 42.9227 104.254 43.744ZM108.574 48V39.84H110.238V48H108.574ZM108.494 38.24V36.368H110.334V38.24H108.494ZM117.521 48C117.468 47.7973 117.43 47.5733 117.409 47.328C117.398 47.0827 117.393 46.784 117.393 46.432H117.313V42.544C117.313 42.0213 117.18 41.632 116.913 41.376C116.657 41.1093 116.246 40.976 115.681 40.976C115.137 40.976 114.7 41.0827 114.369 41.296C114.049 41.5093 113.862 41.8133 113.809 42.208H112.225C112.3 41.44 112.646 40.8267 113.265 40.368C113.884 39.9093 114.71 39.68 115.745 39.68C116.812 39.68 117.612 39.9307 118.145 40.432C118.678 40.9227 118.945 41.648 118.945 42.608V46.432C118.945 46.6773 118.961 46.928 118.993 47.184C119.025 47.44 119.073 47.712 119.137 48H117.521ZM114.705 48.16C113.873 48.16 113.212 47.9573 112.721 47.552C112.23 47.136 111.985 46.576 111.985 45.872C111.985 45.1467 112.241 44.576 112.753 44.16C113.276 43.7333 114.022 43.4453 114.993 43.296L117.681 42.864V44.032L115.249 44.416C114.705 44.5013 114.294 44.6453 114.017 44.848C113.75 45.0507 113.617 45.344 113.617 45.728C113.617 46.1013 113.74 46.384 113.985 46.576C114.241 46.7573 114.609 46.848 115.089 46.848C115.729 46.848 116.257 46.6933 116.673 46.384C117.1 46.0747 117.313 45.6853 117.313 45.216L117.521 46.4C117.329 46.9653 116.988 47.4027 116.497 47.712C116.006 48.0107 115.409 48.16 114.705 48.16ZM121.199 48V39.84H122.783V41.76H122.863V48H121.199ZM126.991 48V42.752C126.991 42.1867 126.847 41.7653 126.559 41.488C126.282 41.2107 125.866 41.072 125.311 41.072C124.831 41.072 124.405 41.1787 124.031 41.392C123.669 41.6053 123.381 41.8987 123.167 42.272C122.965 42.6453 122.863 43.088 122.863 43.6L122.655 41.648C122.922 41.04 123.333 40.56 123.887 40.208C124.442 39.856 125.087 39.68 125.823 39.68C126.698 39.68 127.386 39.9253 127.887 40.416C128.389 40.9067 128.639 41.5573 128.639 42.368V48H126.991ZM134.109 48.16C133.159 48.16 132.461 47.9413 132.013 47.504C131.575 47.056 131.357 46.4 131.357 45.536V37.968L133.005 37.344V45.552C133.005 45.9787 133.117 46.2933 133.341 46.496C133.565 46.6987 133.927 46.8 134.429 46.8C134.621 46.8 134.791 46.784 134.941 46.752C135.09 46.72 135.218 46.6827 135.325 46.64V47.984C135.207 48.0373 135.042 48.08 134.829 48.112C134.615 48.144 134.375 48.16 134.109 48.16ZM129.725 41.168V39.84H135.325V41.168H129.725ZM142.44 48L139.832 44.272L136.52 39.84H138.408L140.792 43.248L144.328 48H142.44ZM139.944 43.248L142.376 39.84H144.2L140.776 44.384L139.944 43.248ZM140.616 44.432L137.992 48H136.152L139.816 43.264L140.616 44.432Z" fill="#444444"/>
</g>
<defs>
<filter id="filter0_d_11584_412" x="0" y="0" width="242" height="110" filterUnits="userSpaceOnUse" color-interpolation-filters="sRGB">
<feFlood flood-opacity="0" result="BackgroundImageFix"/>
<feColorMatrix in="SourceAlpha" type="matrix" values="0 0 0 0 0 0 0 0 0 0 0 0 0 0 0 0 0 0 127 0" result="hardAlpha"/>
<feOffset dy="2"/>
<feGaussianBlur stdDeviation="10"/>
<feComposite in2="hardAlpha" operator="out"/>
<feColorMatrix type="matrix" values="0 0 0 0 0.262745 0 0 0 0 0.262745 0 0 0 0 0.262745 0 0 0 0.1 0"/>
<feBlend mode="normal" in2="BackgroundImageFix" result="effect1_dropShadow_11584_412"/>
<feBlend mode="normal" in="SourceGraphic" in2="effect1_dropShadow_11584_412" result="shape"/>
</filter>
<linearGradient id="paint0_linear_11584_412" x1="53" y1="32" x2="54.75" y2="74" gradientUnits="userSpaceOnUse">
<stop stop-color="white" stop-opacity="0"/>
<stop offset="1" stop-color="white" stop-opacity="0.12"/>
</linearGradient>
<linearGradient id="paint1_linear_11584_412" x1="57.2741" y1="43.4844" x2="57.2741" y2="62.5156" gradientUnits="userSpaceOnUse">
<stop stop-color="white" stop-opacity="0.8"/>
<stop offset="1" stop-color="white" stop-opacity="0.5"/>
</linearGradient>
<linearGradient id="paint2_linear_11584_412" x1="43.6978" y1="43.4844" x2="43.6978" y2="55.9492" gradientUnits="userSpaceOnUse">
<stop stop-color="white" stop-opacity="0.8"/>
<stop offset="1" stop-color="white" stop-opacity="0.5"/>
</linearGradient>
<linearGradient id="paint3_linear_11584_412" x1="53" y1="32" x2="53" y2="74" gradientUnits="userSpaceOnUse">
<stop stop-color="white" stop-opacity="0.12"/>
<stop offset="1" stop-color="white" stop-opacity="0"/>
</linearGradient>
<clipPath id="clip0_11584_412">
<rect width="42" height="42" fill="white" transform="translate(32 32)"/>
</clipPath>
</defs>
</svg>
