<svg width="232" height="100" viewBox="0 0 232 100" fill="none" xmlns="http://www.w3.org/2000/svg">
  <g filter="url(#filter0_d_11584_412)">
    <rect x="15" y="17" width="202" height="70" rx="12" fill="white"/>
  </g>

  <g clip-path="url(#clip0_11584_412)">
    <mask id="mask0_11584_412" style="mask-type:luminance" maskUnits="userSpaceOnUse" x="32" y="32" width="42" height="42">
      <path d="M63.5 32H42.5C36.701 32 32 36.701 32 42.5V63.5C32 69.299 36.701 74 42.5 74H63.5C69.299 74 74 69.299 74 63.5V42.5C74 36.701 69.299 32 63.5 32Z" fill="white"/>
    </mask>
    <g mask="url(#mask0_11584_412)">
      <path d="M63.5 32H42.5C36.701 32 32 36.701 32 42.5V63.5C32 69.299 36.701 74 42.5 74H63.5C69.299 74 74 69.299 74 63.5V42.5C74 36.701 69.299 32 63.5 32Z" fill="#EAAC0E"/>
      <path d="M32 32H74V74H32V32Z" fill="url(#paint0_linear_11584_412)"/>

      <g transform="translate(36 36) scale(0.35)">
        <rect x="63" y="55" width="28" height="12" rx="4" transform="rotate(50 59 65)" stroke="white" stroke-width="4"/>
        <circle cx="42" cy="42" r="32" stroke="white" stroke-width="6"/>
        <rect x="28" y="38" width="28" height="20" rx="3"  stroke="white" stroke-width="4"/>
        <path d="M36 38V34C36 32.8954 36.8954 32 38 32H46C47.1046 32 48 32.8954 48 34V38" stroke="white" stroke-width="3" stroke-linecap="round"/>
        <rect x="39" y="46" width="6" height="5" rx="1"  stroke="white" stroke-width="2"/>
        <path d="M85.4 11.6L87.8 17.6L95 20L87.8 22.4L85.4 29.6L83 22.4L75.8 20L83 17.6L85.4 10.4Z" fill="white"/>
        <circle cx="85" cy="40" r="4" fill="white"/>
        <circle cx="15" cy="10" r="5" fill="white"/>
      </g>
    </g>

    <path d="M63.5 32.875H42.5C37.1843 32.875 32.875 37.1843 32.875 42.5V63.5C32.875 68.8157 37.1843 73.125 42.5 73.125H63.5C68.8157 73.125 73.125 68.8157 73.125 63.5V42.5C73.125 37.1843 68.8157 32.875 63.5 32.875Z" stroke="url(#paint3_linear_11584_412)" stroke-width="2"/>
  </g>

  <text x="90" y="60" font-family="Inter, Segoe UI, sans-serif" font-size="17" font-weight="500" fill="#1F1F1F" letter-spacing="-0.25px">AI Job Match</text>

  <defs>
    <filter id="filter0_d_11584_412" x="0" y="0" width="242" height="110" filterUnits="userSpaceOnUse" color-interpolation-filters="sRGB">
      <feFlood flood-opacity="0" result="BackgroundImageFix"/>
      <feColorMatrix in="SourceAlpha" type="matrix" values="0 0 0 0 0 0 0 0 0 0 0 0 0 0 0 0 0 0 127 0" result="hardAlpha"/>
      <feOffset dy="2"/>
      <feGaussianBlur stdDeviation="10"/>
      <feComposite in2="hardAlpha" operator="out"/>
      <feColorMatrix type="matrix" values="0 0 0 0 0.262745 0 0 0 0 0.262745 0 0 0 0 0.262745 0 0 0 0.1 0"/>
      <feBlend mode="normal" in2="BackgroundImageFix" result="effect1_dropShadow_11584_412"/>
      <feBlend mode="normal" in="SourceGraphic" in2="effect1_dropShadow_11584_412" result="shape"/>
    </filter>
    <linearGradient id="paint0_linear_11584_412" x1="53" y1="32" x2="54.75" y2="74" gradientUnits="userSpaceOnUse">
      <stop stop-color="white" stop-opacity="0"/>
      <stop offset="1" stop-color="white" stop-opacity="0.12"/>
    </linearGradient>
    <linearGradient id="paint3_linear_11584_412" x1="53" y1="32" x2="53" y2="74" gradientUnits="userSpaceOnUse">
      <stop stop-color="white" stop-opacity="0.12"/>
      <stop offset="1" stop-color="white" stop-opacity="0"/>
    </linearGradient>
    <clipPath id="clip0_11584_412">
      <rect width="42" height="42" fill="white" transform="translate(32 32)"/>
    </clipPath>
  </defs>
</svg>