<svg width="113" height="38" viewBox="0 0 113 38" fill="none" xmlns="http://www.w3.org/2000/svg">
<rect x="0.5" y="0.5" width="111.699" height="37" rx="18.5" fill="white"/>
<rect x="0.5" y="0.5" width="111.699" height="37" rx="18.5" stroke="#F3F4F6"/>
<g clip-path="url(#clip0_12071_138)">
<g clip-path="url(#clip1_12071_138)">
<g clip-path="url(#clip2_12071_138)">
<path d="M44.349 19.7521H40.7668C37.6377 19.7521 35.1011 22.2887 35.1011 25.4178V29C40.0397 28.6338 43.9828 24.6907 44.349 19.7521Z" fill="#00A9F0"/>
<path d="M33.597 29V25.4178C33.597 22.2887 31.0604 19.7521 27.9313 19.7521H24.3491C24.7153 24.6907 28.6584 28.6338 33.597 29Z" fill="#00A9F0"/>
<path d="M44.349 18.2479C43.9828 13.3093 40.0397 9.36618 35.1011 9V12.5822C35.1011 15.7113 37.6377 18.2479 40.7668 18.2479H44.349Z" fill="#00A9F0"/>
<path d="M33.597 9C28.6584 9.36618 24.7153 13.3093 24.3491 18.2479H27.9313C31.0604 18.2479 33.597 15.7113 33.597 12.5822V9Z" fill="#00A9F0"/>
<path d="M31.1313 19C32.5214 18.3055 33.6543 17.1726 34.3488 15.7825C35.0434 17.1726 36.1762 18.3055 37.5664 19C36.1762 19.6946 35.0434 20.8275 34.3488 22.2176C33.6543 20.8275 32.5214 19.6946 31.1313 19Z" fill="#00A9F0"/>
</g>
</g>
</g>
<path d="M61.6249 17.084C61.6249 17.78 61.3849 18.36 60.9049 18.824C60.4329 19.28 59.7089 19.508 58.7329 19.508H57.1249V23H56.0329V14.636H58.7329C59.6769 14.636 60.3929 14.864 60.8809 15.32C61.3769 15.776 61.6249 16.364 61.6249 17.084ZM58.7329 18.608C59.3409 18.608 59.7889 18.476 60.0769 18.212C60.3649 17.948 60.5089 17.572 60.5089 17.084C60.5089 16.052 59.9169 15.536 58.7329 15.536H57.1249V18.608H58.7329ZM63.5461 15.356C63.3381 15.356 63.1621 15.284 63.0181 15.14C62.8741 14.996 62.8021 14.82 62.8021 14.612C62.8021 14.404 62.8741 14.228 63.0181 14.084C63.1621 13.94 63.3381 13.868 63.5461 13.868C63.7461 13.868 63.9141 13.94 64.0501 14.084C64.1941 14.228 64.2661 14.404 64.2661 14.612C64.2661 14.82 64.1941 14.996 64.0501 15.14C63.9141 15.284 63.7461 15.356 63.5461 15.356ZM64.0741 16.424V23H62.9821V16.424H64.0741ZM67.2672 17.324V21.2C67.2672 21.52 67.3352 21.748 67.4712 21.884C67.6072 22.012 67.8432 22.076 68.1792 22.076H68.9832V23H67.9992C67.3912 23 66.9352 22.86 66.6312 22.58C66.3272 22.3 66.1752 21.84 66.1752 21.2V17.324H65.3232V16.424H66.1752V14.768H67.2672V16.424H68.9832V17.324H67.2672ZM72.6343 23.108C72.1303 23.108 71.6783 23.024 71.2783 22.856C70.8783 22.68 70.5623 22.44 70.3303 22.136C70.0983 21.824 69.9703 21.468 69.9463 21.068H71.0743C71.1063 21.396 71.2583 21.664 71.5303 21.872C71.8103 22.08 72.1743 22.184 72.6223 22.184C73.0383 22.184 73.3663 22.092 73.6063 21.908C73.8463 21.724 73.9663 21.492 73.9663 21.212C73.9663 20.924 73.8383 20.712 73.5823 20.576C73.3263 20.432 72.9303 20.292 72.3943 20.156C71.9063 20.028 71.5063 19.9 71.1943 19.772C70.8903 19.636 70.6263 19.44 70.4023 19.184C70.1863 18.92 70.0783 18.576 70.0783 18.152C70.0783 17.816 70.1783 17.508 70.3783 17.228C70.5783 16.948 70.8623 16.728 71.2303 16.568C71.5983 16.4 72.0183 16.316 72.4903 16.316C73.2183 16.316 73.8063 16.5 74.2543 16.868C74.7023 17.236 74.9423 17.74 74.9743 18.38H73.8823C73.8583 18.036 73.7183 17.76 73.4623 17.552C73.2143 17.344 72.8783 17.24 72.4543 17.24C72.0623 17.24 71.7503 17.324 71.5183 17.492C71.2863 17.66 71.1703 17.88 71.1703 18.152C71.1703 18.368 71.2383 18.548 71.3743 18.692C71.5183 18.828 71.6943 18.94 71.9023 19.028C72.1183 19.108 72.4143 19.2 72.7903 19.304C73.2623 19.432 73.6463 19.56 73.9423 19.688C74.2383 19.808 74.4903 19.992 74.6983 20.24C74.9143 20.488 75.0263 20.812 75.0343 21.212C75.0343 21.572 74.9343 21.896 74.7343 22.184C74.5343 22.472 74.2503 22.7 73.8823 22.868C73.5223 23.028 73.1063 23.108 72.6343 23.108ZM80.2479 23L77.6679 20.096V23H76.5759V14.12H77.6679V19.34L80.1999 16.424H81.7239L78.6279 19.7L81.7359 23H80.2479ZM88.4156 16.424L84.4556 26.096H83.3276L84.6236 22.928L81.9716 16.424H83.1836L85.2476 21.752L87.2876 16.424H88.4156Z" fill="#1F1F1F"/>
<defs>
<clipPath id="clip0_12071_138">
<rect width="21" height="20" fill="white" transform="translate(23.8491 9)"/>
</clipPath>
<clipPath id="clip1_12071_138">
<rect width="21" height="20" fill="white" transform="translate(23.8491 9)"/>
</clipPath>
<clipPath id="clip2_12071_138">
<rect width="21" height="20" fill="white" transform="translate(23.8491 9)"/>
</clipPath>
</defs>
</svg>
