<svg width="113" height="38" viewBox="0 0 113 38" fill="none" xmlns="http://www.w3.org/2000/svg">
<rect x="0.5" y="0.5" width="111.699" height="37" rx="18.5" fill="white"/>
<rect x="0.5" y="0.5" width="111.699" height="37" rx="18.5" stroke="#F3F4F6"/>
<g clip-path="url(#clip0_12071_119)">
<g clip-path="url(#clip1_12071_119)">
<g clip-path="url(#clip2_12071_119)">
<path fill-rule="evenodd" clip-rule="evenodd" d="M25.2064 9C24.0782 9 22.9963 9.44817 22.1985 10.2459L18.3491 14.0953V15.8573C18.3491 17.1021 18.8838 18.2221 19.7361 19C18.8838 19.7779 18.3491 20.8978 18.3491 22.1427V23.9047L22.1985 27.7541C22.9963 28.5518 24.0782 29 25.2064 29C26.4513 29 27.5712 28.4653 28.3491 27.613C29.127 28.4653 30.247 29 31.4918 29C32.62 29 33.7019 28.5518 34.4997 27.7541L38.3491 23.9047V22.1427C38.3491 20.8978 37.8144 19.7779 36.9621 19C37.8144 18.2221 38.3491 17.1021 38.3491 15.8573V14.0953L34.4997 10.2459C33.7019 9.44817 32.62 9 31.4918 9C30.247 9 29.127 9.53472 28.3491 10.387C27.5712 9.53472 26.4513 9 25.2064 9ZM31.2285 19C31.1806 18.9563 31.1335 18.9113 31.0874 18.8652L28.3491 16.1269L25.6108 18.8652C25.5647 18.9113 25.5177 18.9563 25.4697 19C25.5177 19.0437 25.5647 19.0887 25.6108 19.1348L28.3491 21.8731L31.0874 19.1348C31.1335 19.0887 31.1806 19.0437 31.2285 19ZM29.4602 23.9047V24.7462C29.4602 25.8682 30.3698 26.7778 31.4918 26.7778C32.0306 26.7778 32.5474 26.5637 32.9284 26.1827L36.1269 22.9842V22.1427C36.1269 21.0207 35.2173 20.1111 34.0953 20.1111C33.5565 20.1111 33.0397 20.3251 32.6588 20.7061L29.4602 23.9047ZM27.238 23.9047L24.0395 20.7061C23.6585 20.3251 23.1417 20.1111 22.6029 20.1111C21.4809 20.1111 20.5713 21.0207 20.5713 22.1427V22.9842L23.7699 26.1827C24.1509 26.5637 24.6676 26.7778 25.2064 26.7778C26.3284 26.7778 27.238 25.8682 27.238 24.7462V23.9047ZM27.238 13.2538V14.0953L24.0395 17.2938C23.6585 17.6748 23.1417 17.8889 22.6029 17.8889C21.4809 17.8889 20.5713 16.9793 20.5713 15.8573V15.0158L23.7699 11.8173C24.1509 11.4363 24.6676 11.2222 25.2064 11.2222C26.3284 11.2222 27.238 12.1318 27.238 13.2538ZM32.6588 17.2938L29.4602 14.0953V13.2538C29.4602 12.1318 30.3698 11.2222 31.4918 11.2222C32.0306 11.2222 32.5474 11.4363 32.9284 11.8173L36.1269 15.0158V15.8573C36.1269 16.9793 35.2173 17.8889 34.0953 17.8889C33.5565 17.8889 33.0397 17.6748 32.6588 17.2938Z" fill="#1F1F1F"/>
</g>
</g>
</g>
<path d="M55.8007 17.084C55.8007 17.78 55.5607 18.36 55.0807 18.824C54.6087 19.28 53.8847 19.508 52.9087 19.508H51.3007V23H50.2087V14.636H52.9087C53.8527 14.636 54.5687 14.864 55.0567 15.32C55.5527 15.776 55.8007 16.364 55.8007 17.084ZM52.9087 18.608C53.5167 18.608 53.9647 18.476 54.2527 18.212C54.5407 17.948 54.6847 17.572 54.6847 17.084C54.6847 16.052 54.0927 15.536 52.9087 15.536H51.3007V18.608H52.9087ZM65.9179 16.424L63.8659 23H62.7379L61.1539 17.78L59.5699 23H58.4419L56.3779 16.424H57.4939L59.0059 21.944L60.6379 16.424H61.7539L63.3499 21.956L64.8379 16.424H65.9179ZM73.0016 19.46C73.0016 19.668 72.9896 19.888 72.9656 20.12H67.7096C67.7496 20.768 67.9696 21.276 68.3696 21.644C68.7776 22.004 69.2696 22.184 69.8456 22.184C70.3176 22.184 70.7096 22.076 71.0216 21.86C71.3416 21.636 71.5656 21.34 71.6936 20.972H72.8696C72.6936 21.604 72.3416 22.12 71.8136 22.52C71.2856 22.912 70.6296 23.108 69.8456 23.108C69.2216 23.108 68.6616 22.968 68.1656 22.688C67.6776 22.408 67.2936 22.012 67.0136 21.5C66.7336 20.98 66.5936 20.38 66.5936 19.7C66.5936 19.02 66.7296 18.424 67.0016 17.912C67.2736 17.4 67.6536 17.008 68.1416 16.736C68.6376 16.456 69.2056 16.316 69.8456 16.316C70.4696 16.316 71.0216 16.452 71.5016 16.724C71.9816 16.996 72.3496 17.372 72.6056 17.852C72.8696 18.324 73.0016 18.86 73.0016 19.46ZM71.8736 19.232C71.8736 18.816 71.7816 18.46 71.5976 18.164C71.4136 17.86 71.1616 17.632 70.8416 17.48C70.5296 17.32 70.1816 17.24 69.7976 17.24C69.2456 17.24 68.7736 17.416 68.3816 17.768C67.9976 18.12 67.7776 18.608 67.7216 19.232H71.8736ZM75.775 17.324V21.2C75.775 21.52 75.843 21.748 75.979 21.884C76.115 22.012 76.351 22.076 76.687 22.076H77.491V23H76.507C75.899 23 75.443 22.86 75.139 22.58C74.835 22.3 74.683 21.84 74.683 21.2V17.324H73.831V16.424H74.683V14.768H75.775V16.424H77.491V17.324H75.775ZM80.1461 17.324V21.2C80.1461 21.52 80.2141 21.748 80.3501 21.884C80.4861 22.012 80.7221 22.076 81.0581 22.076H81.8621V23H80.8781C80.2701 23 79.8141 22.86 79.5101 22.58C79.2061 22.3 79.0541 21.84 79.0541 21.2V17.324H78.2021V16.424H79.0541V14.768H80.1461V16.424H81.8621V17.324H80.1461ZM86.0532 23.108C85.4372 23.108 84.8772 22.968 84.3732 22.688C83.8772 22.408 83.4852 22.012 83.1972 21.5C82.9172 20.98 82.7772 20.38 82.7772 19.7C82.7772 19.028 82.9212 18.436 83.2092 17.924C83.5052 17.404 83.9052 17.008 84.4092 16.736C84.9132 16.456 85.4772 16.316 86.1012 16.316C86.7252 16.316 87.2892 16.456 87.7932 16.736C88.2972 17.008 88.6932 17.4 88.9812 17.912C89.2772 18.424 89.4252 19.02 89.4252 19.7C89.4252 20.38 89.2732 20.98 88.9692 21.5C88.6732 22.012 88.2692 22.408 87.7572 22.688C87.2452 22.968 86.6772 23.108 86.0532 23.108ZM86.0532 22.148C86.4452 22.148 86.8132 22.056 87.1572 21.872C87.5012 21.688 87.7772 21.412 87.9852 21.044C88.2012 20.676 88.3092 20.228 88.3092 19.7C88.3092 19.172 88.2052 18.724 87.9972 18.356C87.7892 17.988 87.5172 17.716 87.1812 17.54C86.8452 17.356 86.4812 17.264 86.0892 17.264C85.6892 17.264 85.3212 17.356 84.9852 17.54C84.6572 17.716 84.3932 17.988 84.1932 18.356C83.9932 18.724 83.8932 19.172 83.8932 19.7C83.8932 20.236 83.9892 20.688 84.1812 21.056C84.3812 21.424 84.6452 21.7 84.9732 21.884C85.3012 22.06 85.6612 22.148 86.0532 22.148ZM91.953 17.492C92.145 17.116 92.417 16.824 92.769 16.616C93.129 16.408 93.565 16.304 94.077 16.304V17.432H93.789C92.565 17.432 91.953 18.096 91.953 19.424V23H90.861V16.424H91.953V17.492Z" fill="#1F1F1F"/>
<defs>
<clipPath id="clip0_12071_119">
<rect width="21" height="20" fill="white" transform="translate(17.8491 9)"/>
</clipPath>
<clipPath id="clip1_12071_119">
<rect width="21" height="20" fill="white" transform="translate(17.8491 9)"/>
</clipPath>
<clipPath id="clip2_12071_119">
<rect width="21" height="20" fill="white" transform="translate(17.8491 9)"/>
</clipPath>
</defs>
</svg>
