<svg width="232" height="100" viewBox="0 0 232 100" fill="none" xmlns="http://www.w3.org/2000/svg">
  <g filter="url(#filter0_d_11584_412)">
    <rect x="15" y="17" width="202" height="70" rx="12" fill="white"/>
  </g>

  <g clip-path="url(#clip0_11584_412)">
    <mask id="mask0_11584_412" style="mask-type:luminance" maskUnits="userSpaceOnUse" x="32" y="32" width="42" height="42">
      <path d="M63.5 32H42.5C36.701 32 32 36.701 32 42.5V63.5C32 69.299 36.701 74 42.5 74H63.5C69.299 74 74 69.299 74 63.5V42.5C74 36.701 69.299 32 63.5 32Z" fill="white"/>
    </mask>
    <g mask="url(#mask0_11584_412)">
      <path d="M63.5 32H42.5C36.701 32 32 36.701 32 42.5V63.5C32 69.299 36.701 74 42.5 74H63.5C69.299 74 74 69.299 74 63.5V42.5C74 36.701 69.299 32 63.5 32Z" fill="#0D9759"/>
      <path d="M32 32H74V74H32V32Z" fill="url(#paint0_linear_11584_412)"/>

     <g transform="translate(38, 38) scale(0.3)">
        <path d="M22 10C17.5817 10 14 13.5817 14 18V82C14 86.4183 17.5817 90 22 90H78C82.4183 90 86 86.4183 86 82V28.5L67.5 10H22Z" stroke="white" stroke-width="4" stroke-linecap="round" stroke-linejoin="round"/>
        <path d="M67.5 10V21C67.5 25.1421 70.8579 28.5 75 28.5H86" stroke="white" stroke-width="4" stroke-linecap="round" stroke-linejoin="round"/>
        <line x1="32" y1="40" x2="68" y2="40" stroke="white" stroke-width="4" stroke-linecap="round"/>
        <line x1="32" y1="50" x2="68" y2="50" stroke="white" stroke-width="4" stroke-linecap="round"/>
       <line x1="32" y1="60" x2="68" y2="60" stroke="white" stroke-width="4" stroke-linecap="round"/>
        <line x1="62" y1="72" x2="68" y2="72" stroke="white" stroke-width="4" stroke-linecap="round"/>
        <path d="M82 2L84 10L92 12L84 14L82 22L80 14L72 12L80 10L82 2Z" fill="white"/>
        <path d="M91 19L92 23L96 24L92 25L91 29L90 25L86 24L90 23L91 19Z" fill="white"/>
      </g>
    </g>

    <path d="M63.5 32.875H42.5C37.1843 32.875 32.875 37.1843 32.875 42.5V63.5C32.875 68.8157 37.1843 73.125 42.5 73.125H63.5C68.8157 73.125 73.125 68.8157 73.125 63.5V42.5C73.125 37.1843 68.8157 32.875 63.5 32.875Z" stroke="url(#paint3_linear_11584_412)" stroke-width="2"/>
  </g>

  <text x="83" y="60" font-family="Inter, Segoe UI, sans-serif" font-size="15" font-weight="500" fill="#1F1F1F" letter-spacing="-0.25px">Resume Generator</text>

  <defs>
    <filter id="filter0_d_11584_412" x="0" y="0" width="242" height="110" filterUnits="userSpaceOnUse" color-interpolation-filters="sRGB">
      <feFlood flood-opacity="0" result="BackgroundImageFix"/>
      <feColorMatrix in="SourceAlpha" type="matrix" values="0 0 0 0 0 0 0 0 0 0 0 0 0 0 0 0 0 0 127 0" result="hardAlpha"/>
      <feOffset dy="2"/>
      <feGaussianBlur stdDeviation="10"/>
      <feComposite in2="hardAlpha" operator="out"/>
      <feColorMatrix type="matrix" values="0 0 0 0 0.262745 0 0 0 0 0.262745 0 0 0 0 0.262745 0 0 0 0.1 0"/>
      <feBlend mode="normal" in2="BackgroundImageFix" result="effect1_dropShadow_11584_412"/>
      <feBlend mode="normal" in="SourceGraphic" in2="effect1_dropShadow_11584_412" result="shape"/>
    </filter>
    <linearGradient id="paint0_linear_11584_412" x1="53" y1="32" x2="54.75" y2="74" gradientUnits="userSpaceOnUse">
      <stop stop-color="white" stop-opacity="0"/>
      <stop offset="1" stop-color="white" stop-opacity="0.12"/>
    </linearGradient>
    <linearGradient id="paint3_linear_11584_412" x1="53" y1="32" x2="53" y2="74" gradientUnits="userSpaceOnUse">
      <stop stop-color="white" stop-opacity="0.12"/>
      <stop offset="1" stop-color="white" stop-opacity="0"/>
    </linearGradient>
    <clipPath id="clip0_11584_412">
      <rect width="42" height="42" fill="white" transform="translate(32 32)"/>
    </clipPath>
  </defs>
</svg>
