<svg width="111" height="38" viewBox="0 0 111 38" fill="none" xmlns="http://www.w3.org/2000/svg">
<rect x="0.5" y="0.5" width="109.5" height="37" rx="18.5" fill="white"/>
<rect x="0.5" y="0.5" width="109.5" height="37" rx="18.5" stroke="#F3F4F6"/>
<g clip-path="url(#clip0_12071_101)">
<g clip-path="url(#clip1_12071_101)">
<g clip-path="url(#clip2_12071_101)">
<path d="M36.3275 25.3982C36.3468 23.4027 35.8451 21.7799 35.2069 21.7736C34.5686 21.7674 34.0355 23.3799 34.0162 25.3754C33.9968 27.3709 34.4985 28.9937 35.1368 29C35.775 29.0063 36.3081 27.3937 36.3275 25.3982Z" fill="#FF4340"/>
<path d="M32.6262 24.945C33.7125 23.2768 34.1606 21.6382 33.6271 21.2849C33.0935 20.9317 31.7804 21.9976 30.6941 23.6657C29.6077 25.3339 29.1597 26.9725 29.6932 27.3258C30.2267 27.679 31.5399 26.6131 32.6262 24.945Z" fill="#FF4340"/>
<path d="M29.7505 22.5516C31.5589 21.7406 32.8145 20.6064 32.5551 20.0184C32.2957 19.4303 30.6195 19.6111 28.8111 20.4222C27.0028 21.2332 25.7472 22.3674 26.0066 22.9555C26.266 23.5435 27.9422 23.3627 29.7505 22.5516Z" fill="#FF4340"/>
<path d="M32.3381 18.3693C32.4353 17.7332 30.9282 16.9714 28.9721 16.6678C27.016 16.3642 25.3515 16.6338 25.2544 17.2699C25.1573 17.906 26.6644 18.6678 28.6205 18.9713C30.5766 19.275 32.2411 19.0054 32.3381 18.3693Z" fill="#36C6FF"/>
<path d="M33.0405 16.8539C33.4632 16.3717 32.6036 14.9095 31.1207 13.5879C29.6377 12.2664 28.0929 11.586 27.6702 12.0682C27.2475 12.5505 28.107 14.0127 29.59 15.3343C31.073 16.6558 32.6178 17.3362 33.0405 16.8539Z" fill="#36C6FF"/>
<path d="M34.4391 15.9683C35.0532 15.7931 35.1142 14.0944 34.5754 12.1742C34.0365 10.254 33.1018 8.83944 32.4876 9.01467C31.8734 9.18991 31.8124 10.8886 32.3513 12.8088C32.8902 14.729 33.8249 16.1436 34.4391 15.9683Z" fill="#36C6FF"/>
<path d="M38.2372 12.8686C38.8135 10.9595 38.7858 9.25994 38.1751 9.07253C37.5645 8.88512 36.6023 10.2808 36.026 12.1899C35.4497 14.099 35.4774 15.7986 36.0881 15.986C36.6987 16.1734 37.6609 14.7778 38.2372 12.8686Z" fill="#0DC46E"/>
<path d="M40.9508 15.4481C42.4591 14.1561 43.3468 12.711 42.9335 12.2206C42.5203 11.7301 40.9625 12.3799 39.4542 13.672C37.9459 14.964 37.0582 16.4091 37.4715 16.8995C37.8847 17.39 39.4425 16.7402 40.9508 15.4481Z" fill="#0DC46E"/>
<path d="M41.8482 19.0987C43.8099 18.8341 45.3315 18.1024 45.2468 17.4645C45.1622 16.8266 43.5033 16.524 41.5417 16.7886C39.58 17.0532 38.0584 17.7849 38.143 18.4228C38.2277 19.0607 39.8865 19.3633 41.8482 19.0987Z" fill="#0DC46E"/>
<path d="M44.3786 23.1378C44.6495 22.555 43.4163 21.3961 41.6242 20.5493C39.8321 19.7024 38.1597 19.4883 37.8889 20.0711C37.618 20.6539 38.8512 21.8128 40.6433 22.6597C42.4354 23.5065 44.1078 23.7206 44.3786 23.1378Z" fill="#FDCB02"/>
<path d="M40.6088 27.4377C41.1491 27.0951 40.7332 25.4478 39.6797 23.7584C38.6262 22.069 37.3342 20.9772 36.7938 21.3198C36.2535 21.6623 36.6695 23.3096 37.7229 24.999C38.7764 26.6884 40.0685 27.7803 40.6088 27.4377Z" fill="#FDCB02"/>
</g>
</g>
</g>
<path d="M61.412 23L59.42 19.58H58.1V23H57.008V14.636H59.708C60.34 14.636 60.872 14.744 61.304 14.96C61.744 15.176 62.072 15.468 62.288 15.836C62.504 16.204 62.612 16.624 62.612 17.096C62.612 17.672 62.444 18.18 62.108 18.62C61.78 19.06 61.284 19.352 60.62 19.496L62.72 23H61.412ZM58.1 18.704H59.708C60.3 18.704 60.744 18.56 61.04 18.272C61.336 17.976 61.484 17.584 61.484 17.096C61.484 16.6 61.336 16.216 61.04 15.944C60.752 15.672 60.308 15.536 59.708 15.536H58.1V18.704ZM65.4008 14.12V23H64.3088V14.12H65.4008ZM73.2619 19.46C73.2619 19.668 73.2499 19.888 73.2259 20.12H67.9699C68.0099 20.768 68.2299 21.276 68.6299 21.644C69.0379 22.004 69.5299 22.184 70.1059 22.184C70.5779 22.184 70.9699 22.076 71.2819 21.86C71.6019 21.636 71.8259 21.34 71.9539 20.972H73.1299C72.9539 21.604 72.6019 22.12 72.0739 22.52C71.5459 22.912 70.8899 23.108 70.1059 23.108C69.4819 23.108 68.9219 22.968 68.4259 22.688C67.9379 22.408 67.5539 22.012 67.2739 21.5C66.9939 20.98 66.8539 20.38 66.8539 19.7C66.8539 19.02 66.9899 18.424 67.2619 17.912C67.5339 17.4 67.9139 17.008 68.4019 16.736C68.8979 16.456 69.4659 16.316 70.1059 16.316C70.7299 16.316 71.2819 16.452 71.7619 16.724C72.2419 16.996 72.6099 17.372 72.8659 17.852C73.1299 18.324 73.2619 18.86 73.2619 19.46ZM72.1339 19.232C72.1339 18.816 72.0419 18.46 71.8579 18.164C71.6739 17.86 71.4219 17.632 71.1019 17.48C70.7899 17.32 70.4419 17.24 70.0579 17.24C69.5059 17.24 69.0339 17.416 68.6419 17.768C68.2579 18.12 68.0379 18.608 67.9819 19.232H72.1339ZM75.5193 22.1H78.7473V23H74.2713V22.1L77.4633 17.312H74.2953V16.424H78.7233V17.312L75.5193 22.1ZM83.8362 23L81.2562 20.096V23H80.1642V14.12H81.2562V19.34L83.7882 16.424H85.3122L82.2162 19.7L85.3242 23H83.8362Z" fill="#1F1F1F"/>
<defs>
<clipPath id="clip0_12071_101">
<rect width="21" height="20" fill="white" transform="translate(24.75 9)"/>
</clipPath>
<clipPath id="clip1_12071_101">
<rect width="21" height="20" fill="white" transform="translate(24.75 9)"/>
</clipPath>
<clipPath id="clip2_12071_101">
<rect width="21" height="20" fill="white" transform="translate(24.75 9)"/>
</clipPath>
</defs>
</svg>
